<svg xmlns="http://www.w3.org/2000/svg" fill="none" viewBox="0 0 48 48" id="Binoculars-Sharp--Streamline-Ionic-Sharp" height="48" width="48">
  <desc>
    Binoculars Sharp Streamline Icon: https://streamlinehq.com
  </desc>
  <path fill="#ffffff" fill-rule="evenodd" d="M15.375 6c-1.9958 0 -3.4859 0.63354 -4.6015 1.76542 -1.03794 1.05311 -1.645 2.44088 -2.13677 3.68198L2.18275 28.6586c-0.06305 0.159 -0.16209 0.4299 -0.21689 0.5929 -0.02342 0.0642 -0.04219 0.129 -0.05646 0.1939 -0.26632 0.8883 -0.4094 1.8297 -0.4094 2.8046 0 5.3848 4.36523 9.75 9.75 9.75 5.3848 0 9.75 -4.3652 9.75 -9.75v-5.6682l0.0037 -0.001 5.9963 0.001V32.25c0 5.3848 4.3652 9.75 9.75 9.75s9.75 -4.3652 9.75 -9.75c0 -0.9749 -0.1431 -1.9163 -0.4094 -2.8045 -0.0305 -0.1018 -0.2733 -0.7868 -0.2733 -0.7868l-6.3944 -17.0545 -0.0596 -0.1568c-0.4918 -1.2411 -1.0988 -2.62887 -2.1368 -3.68198C36.1109 6.63354 34.6208 6 32.625 6c-1.7284 0 -3.1813 0.67866 -4.1823 1.83814C27.4634 8.9725 27 10.4661 27 12v3.2633h-6V12c0 -1.5339 -0.4634 -3.0275 -1.4427 -4.16186C18.5563 6.67866 17.1034 6 15.375 6ZM5.25 32.25c0 -3.3137 2.68629 -6 6 -6 3.3137 0 6 2.6863 6 6s-2.6863 6 -6 6c-3.31371 0 -6 -2.6863 -6 -6Zm25.5 0c0 -3.3137 2.6863 -6 6 -6s6 2.6863 6 6 -2.6863 6 -6 6 -6 -2.6863 -6 -6Z" clip-rule="evenodd" stroke-width="1"></path>
</svg>